;PTH Drill file created by EasyEDA 
M48
INCH,LZ
;Holesize 1 = 0.035 INCH
T01C0.035
;Holesize 2 = 0.035 INCH
T02C0.035
;Holesize 3 = 0.040 INCH
T03C0.040
;Holesize 4 = 0.051 INCH
T04C0.051
%
G05
G90
T01
X003300Y016300
X004300Y016300
X000800Y000600
X001800Y000600
X005800Y000600
X006800Y000600
T02
X002400Y008700
X005400Y008700
X005400Y010300
X002400Y010300
T03
X000800Y013500
X000800Y012500
X000800Y011500
X000800Y010500
X000800Y009500
X000800Y008500
X000800Y007500
X000800Y006500
X000800Y005500
X000800Y004500
X000800Y003500
X000800Y002500
X006800Y002500
X006800Y003500
X006800Y004500
X006800Y005500
X006800Y006500
X006800Y007500
X006800Y008500
X006800Y009500
X006800Y010500
X006800Y011500
X006800Y012500
X006800Y013500
T04
X004850Y006700
X002850Y006700
X003850Y006700
M30
