G04 ---------------------------- Layer name :TOP SOLDER LAYER*
G04 EasyEDA v5.3.14, Tue, 28 Apr 2020 13:33:28 GMT*
G04 Gerber Generator version 0.2*
G04 Scale: 100 percent, Rotated: No, Reflected: No *
G04 Dimensions in inches *
G04 leading zeros omitted , absolute positions ,2 integer and 4 decimal *
%FSLAX24Y24*%
%MOIN*%
G90*
G70D02*

%ADD12R,0.157606X0.086740*%
%ADD13R,0.067055X0.086740*%
%ADD14R,0.086740X0.106425*%
%ADD15C,0.082000*%
%ADD16R,0.070000X0.070000*%
%ADD17C,0.070000*%
%ADD18C,0.086740*%

%LPD*%
G54D18*
G01X2850Y6601D02*
G01X2850Y6798D01*
G01X3850Y6601D02*
G01X3850Y6798D01*
G54D14*
G01X4850Y6700D03*
G54D15*
G01X800Y13500D03*
G01X800Y12500D03*
G01X800Y11500D03*
G01X800Y10500D03*
G01X800Y9500D03*
G01X800Y8500D03*
G01X800Y7500D03*
G01X800Y6500D03*
G01X800Y5500D03*
G01X800Y4500D03*
G01X800Y3500D03*
G01X800Y2500D03*
G01X6800Y2500D03*
G01X6800Y3500D03*
G01X6800Y4500D03*
G01X6800Y5500D03*
G01X6800Y6500D03*
G01X6800Y7500D03*
G01X6800Y8500D03*
G01X6800Y9500D03*
G01X6800Y10500D03*
G01X6800Y11500D03*
G01X6800Y12500D03*
G01X6800Y13500D03*
G54D12*
G01X3900Y11900D03*
G54D13*
G01X3900Y14380D03*
G01X2994Y14380D03*
G01X4806Y14380D03*
G54D16*
G01X3300Y16300D03*
G54D17*
G01X4300Y16300D03*
G54D16*
G01X800Y600D03*
G54D17*
G01X1800Y600D03*
G54D15*
G01X2400Y8700D03*
G01X5400Y8700D03*
G01X5400Y10300D03*
G01X2400Y10300D03*
G54D16*
G01X5800Y600D03*
G54D17*
G01X6800Y600D03*
M00*
M02*
